<?xml version="1.0" standalone="no"?>
<!DOCTYPE svg PUBLIC "-//W3C//DTD SVG 20010904//EN"
 "http://www.w3.org/TR/2001/REC-SVG-20010904/DTD/svg10.dtd">
<svg version="1.0" xmlns="http://www.w3.org/2000/svg"
 width="256.000000pt" height="256.000000pt" viewBox="0 0 256.000000 256.000000"
 preserveAspectRatio="xMidYMid meet">
<metadata>
Created by potrace 1.10, written by Peter Selinger 2001-2011
</metadata>
<g transform="translate(0.000000,256.000000) scale(0.100000,-0.100000)"
fill="#000000" stroke="none">
<path d="M1120 2504 c-245 -43 -447 -148 -621 -323 -243 -242 -350 -519 -336
-870 11 -289 109 -525 306 -733 163 -172 332 -273 561 -334 122 -33 351 -42
475 -18 484 91 840 441 940 924 33 157 15 420 -40 585 -29 88 -106 235 -165
314 -222 298 -562 469 -930 468 -63 0 -149 -6 -190 -13z m406 -40 c222 -45
388 -135 577 -311 125 -116 167 -172 231 -304 91 -188 127 -432 95 -645 -10
-66 -15 -80 -17 -54 -3 30 -7 21 -27 -57 -107 -421 -455 -745 -879 -819 -93
-17 -248 -21 -346 -11 l-55 6 60 -14 60 -14 -66 4 c-87 7 -203 38 -309 82
-113 48 -267 150 -316 210 l-39 48 55 -49 c58 -52 161 -122 220 -150 39 -18
33 -14 -78 59 -91 59 -220 184 -285 276 -61 86 -119 203 -156 315 -18 54 -30
79 -31 64 -1 -18 -6 -11 -17 25 -24 83 -29 342 -8 450 30 155 94 308 176 425
43 61 179 190 285 271 133 101 350 187 524 208 92 12 251 5 346 -15z m518
-1965 c-36 -40 -184 -138 -184 -122 0 4 27 23 60 42 33 19 76 49 97 68 43 37
55 43 27 12z m-204 -139 c-31 -20 -161 -71 -192 -75 -18 -3 0 6 40 21 39 14
91 36 115 48 39 22 69 26 37 6z m-245 -90 c-27 -12 -43 -12 -25 0 8 5 22 9 30
9 10 0 8 -3 -5 -9z"/>
<path d="M1110 2350 c-312 -64 -574 -272 -711 -565 -75 -159 -108 -354 -88
-516 30 -246 114 -430 277 -601 124 -130 269 -217 458 -274 82 -25 103 -27
259 -27 143 -1 182 3 247 21 188 52 311 119 441 242 101 96 157 170 215 285
232 464 71 1033 -369 1304 -216 133 -484 181 -729 131z m200 1 c0 -4 38 -11
84 -14 214 -17 456 -129 611 -284 118 -118 206 -274 252 -443 22 -84 34 -203
20 -212 -19 -12 -27 2 -27 47 0 35 -4 45 -20 50 -32 10 -52 -13 -48 -54 2 -27
-1 -36 -12 -36 -8 0 -15 9 -16 20 -1 11 -4 42 -8 68 -7 44 -5 49 24 79 27 26
31 37 26 62 -9 42 -37 67 -76 69 -30 2 -37 8 -63 57 -16 30 -48 79 -70 109
-46 60 -165 171 -205 192 -15 8 -29 17 -32 20 -3 3 -27 16 -55 28 -59 25 -41
10 47 -39 121 -67 287 -259 329 -377 10 -31 32 -47 26 -21 -3 20 43 21 64 2
25 -22 25 -76 0 -98 -18 -16 -20 -16 -37 1 -17 17 -17 17 -11 -7 4 -14 12 -64
19 -112 l12 -88 31 0 31 0 -4 61 c-4 55 -3 61 14 57 15 -3 17 -12 15 -61 l-2
-57 36 0 c25 0 35 -4 32 -12 -2 -7 -19 -13 -36 -13 l-33 0 4 -57 c4 -52 2 -58
-15 -58 -16 0 -18 7 -16 57 l3 56 -31 1 -31 1 -11 -82 c-20 -156 -84 -306
-182 -423 -47 -57 -60 -78 -39 -65 11 7 13 -6 4 -30 -6 -14 -53 -45 -70 -45
-3 0 1 11 10 25 12 19 -1 12 -55 -27 -57 -42 -72 -49 -80 -37 -14 22 -11 26
25 48 19 12 40 29 47 38 13 15 12 15 -8 4 -16 -8 -23 -8 -23 -1 0 6 -4 8 -10
5 -10 -6 -14 19 -10 63 1 12 -3 22 -9 22 -14 0 -14 -73 -1 -86 12 -12 2 -46
-12 -42 -9 3 -72 109 -66 112 22 9 40 23 40 31 0 6 30 42 67 80 55 58 137 186
148 230 1 6 8 41 16 80 9 51 18 71 30 73 13 3 17 -4 17 -27 0 -28 21 -61 40
-61 12 0 22 18 29 53 4 17 13 33 20 35 11 4 13 -8 8 -60 -9 -102 -63 -242
-126 -328 -14 -19 -26 -36 -26 -37 -1 -2 -19 4 -42 13 -36 14 -42 14 -74 -1
-63 -30 -79 -40 -79 -47 0 -15 24 -8 45 12 32 30 90 37 115 15 15 -14 17 -21
9 -32 -7 -7 -9 -16 -6 -19 10 -11 99 119 137 201 37 77 66 188 72 269 3 38 2
38 -34 41 l-38 2 0 -47 c0 -35 -4 -47 -15 -47 -11 0 -15 12 -15 46 0 46 0 46
-35 46 -19 0 -35 -2 -36 -5 0 -3 -3 -25 -5 -50 -9 -75 -53 -190 -100 -262 -45
-67 -130 -152 -172 -171 -12 -6 -21 -13 -20 -16 2 -3 20 -39 41 -78 39 -77 43
-88 27 -78 -13 8 -13 -1 0 -26 6 -10 17 -19 25 -19 22 0 88 -135 72 -148 -14
-11 -48 -12 -41 -1 7 13 -36 90 -46 84 -5 -3 -8 0 -5 7 3 7 1 19 -4 27 -7 11
-21 8 -76 -14 -82 -32 -183 -55 -251 -55 l-51 0 1 -35 1 -35 58 0 c44 0 57 -3
57 -15 0 -12 -13 -15 -58 -15 l-57 0 0 -32 c0 -17 -6 -33 -12 -35 -9 -3 -13 7
-13 31 l0 36 -60 0 c-47 0 -60 3 -60 15 0 12 13 15 60 15 l60 0 0 34 0 33 -73
6 c-130 11 -270 65 -392 152 -189 134 -324 374 -338 599 l-3 49 -42 1 -42 1 0
-57 c0 -45 -3 -58 -15 -58 -12 0 -15 14 -15 62 0 34 -3 58 -7 54 -10 -9 -3
-109 8 -121 19 -19 43 10 45 54 1 23 4 45 8 48 13 14 41 -14 44 -43 10 -106
73 -303 114 -359 5 -5 28 -38 54 -72 109 -149 303 -275 499 -324 40 -10 51
-26 32 -45 -4 -4 -7 -18 -7 -30 0 -25 18 -34 74 -36 22 -1 36 -6 36 -14 0 -15
-17 -27 -23 -17 -3 5 -31 9 -62 11 -119 7 -295 73 -431 164 -64 43 -179 151
-222 208 -37 50 -121 217 -146 291 -26 78 -58 248 -49 262 3 4 -1 15 -8 23 -8
10 -9 18 -3 22 5 4 10 36 12 71 3 84 41 238 80 323 143 317 459 546 790 574
42 4 79 11 80 15 5 12 22 12 22 0z m870 -1070 c0 -42 18 -65 47 -59 13 2 19
15 23 48 4 32 10 46 23 48 21 4 21 -2 2 -103 -31 -167 -40 -195 -93 -294 -79
-149 -190 -278 -310 -359 l-60 -42 -31 60 -31 59 28 20 c16 11 41 23 58 27 59
14 81 32 104 86 20 47 74 134 91 148 31 25 109 240 116 319 6 68 9 81 23 81 5
0 10 -17 10 -39z m-470 -804 c-24 -26 -264 -87 -341 -87 -22 0 -32 27 -13 34
8 3 12 2 9 -3 -4 -8 21 -8 55 -1 3 0 13 7 23 14 18 14 18 15 0 35 -13 15 -29
21 -61 21 -31 0 -42 4 -39 13 2 6 10 12 18 13 53 3 142 20 186 35 28 9 54 15
56 12 3 -2 18 2 34 10 l28 15 27 -51 c14 -29 23 -56 18 -60z m-447 36 c14 -8
7 -21 -14 -26 -25 -7 -81 13 -60 20 11 5 11 7 0 15 -14 9 57 0 74 -9z"/>
<path d="M1270 2306 c0 -11 -15 -16 -52 -18 -44 -3 -53 -6 -55 -23 -2 -18 -1
-18 4 -1 4 16 13 18 64 14 56 -4 59 -3 59 19 0 13 -4 23 -10 23 -5 0 -10 -7
-10 -14z"/>
<path d="M1320 2308 c0 -10 0 -21 0 -25 0 -4 25 -5 55 -4 44 2 55 -1 55 -13 0
-13 -12 -16 -55 -16 l-55 0 0 -79 c0 -44 -3 -86 -6 -95 -5 -13 2 -16 34 -16
39 0 71 19 38 21 -9 1 -20 3 -26 4 -5 1 -15 3 -20 4 -7 1 -10 27 -8 69 l3 67
50 5 c45 5 50 7 50 30 0 22 -5 25 -44 28 -27 2 -50 10 -58 20 -12 16 -12 16
-13 0z"/>
<path d="M1180 2240 c0 -5 20 -10 45 -10 l45 0 0 -70 c0 -68 -1 -70 -27 -76
-50 -11 -54 -14 -51 -36 2 -18 11 -24 38 -28 l35 -5 3 -62 c3 -70 -5 -78 -47
-41 -14 13 -10 5 9 -16 31 -34 32 -38 13 -33 -26 6 -48 -16 -39 -38 3 -9 19
-18 35 -21 28 -6 29 -8 29 -64 0 -32 3 -63 6 -69 4 -6 1 -11 -6 -11 -18 0 -83
69 -92 96 -3 12 -16 30 -28 40 -21 18 -21 17 2 -15 16 -23 19 -35 11 -40 -8
-5 -7 -13 4 -27 21 -28 18 -44 -7 -45 -17 -1 -19 -2 -5 -6 22 -6 22 -18 -3
-43 -27 -27 -36 -25 -56 10 l-18 30 -24 -23 c-44 -40 -92 -125 -107 -189 -8
-35 -15 -66 -15 -70 0 -5 27 -8 60 -8 l60 0 -6 30 c-6 26 -3 30 15 30 18 0 20
-4 15 -30 l-6 -30 79 0 79 0 11 31 c7 17 21 33 32 36 17 4 21 13 21 44 0 35
-18 57 -22 27 0 -7 -2 -18 -2 -23 -1 -6 -16 -29 -35 -52 -32 -40 -35 -41 -85
-40 l-51 2 -1 50 c0 50 -17 95 -34 95 -12 0 -13 40 -1 59 8 12 14 12 39 2 22
-9 36 -10 50 -2 14 7 23 8 27 1 3 -5 15 -10 26 -10 11 0 24 -11 30 -24 11 -23
42 -40 53 -28 3 3 6 13 6 23 0 13 -7 17 -26 16 -15 -1 -29 4 -31 11 -3 8 6 12
26 12 l31 0 0 110 0 110 -34 0 c-21 0 -36 6 -40 15 -4 12 3 15 34 15 l40 0 0
94 0 94 -45 -6 c-37 -4 -45 -2 -45 12 0 12 10 16 45 16 l45 0 0 95 0 95 -55 0
c-30 0 -55 -4 -55 -10z m72 -608 c-7 -2 -18 -10 -26 -17 -13 -14 -40 -15 -52
-3 -3 4 -1 22 6 42 9 27 8 40 -1 58 -6 13 10 1 37 -26 30 -30 44 -51 36 -54z
m-216 -66 c-4 -16 -1 -26 9 -30 25 -9 17 -24 -10 -18 -34 6 -40 19 -24 48 16
31 33 31 25 0z m-18 -55 c9 -5 25 -12 35 -15 22 -7 24 -56 2 -56 -9 0 -21 -12
-27 -26 -9 -19 -17 -24 -32 -20 -12 3 -25 6 -30 6 -8 0 -4 39 7 85 3 11 6 23
6 28 1 10 18 9 39 -2z"/>
<path d="M1610 2080 c8 -5 20 -10 25 -10 6 0 3 5 -5 10 -8 5 -19 10 -25 10 -5
0 -3 -5 5 -10z"/>
<path d="M1650 2067 c0 -2 27 -21 60 -41 187 -116 329 -333 358 -550 7 -51 6
-69 -4 -77 -10 -8 -15 -4 -19 18 -11 47 -14 53 -30 59 -23 9 -45 -14 -45 -47
0 -19 -5 -29 -15 -29 -18 0 -22 9 -30 65 -16 112 -61 210 -137 297 -47 55 -52
64 -49 103 2 36 -2 46 -25 64 -33 26 -64 27 -109 2 -34 -18 -34 -18 -11 -29
20 -9 23 -8 22 6 -2 25 48 39 79 22 28 -15 39 -41 30 -71 -4 -13 -12 -18 -22
-15 -8 3 13 -24 47 -61 92 -101 169 -277 170 -390 0 -20 5 -23 35 -23 35 0 35
0 35 44 0 30 5 46 15 50 12 4 15 -4 15 -44 l0 -50 39 0 39 0 -5 48 c-22 240
-137 449 -318 577 -58 41 -125 80 -125 72z"/>
<path d="M1405 2050 c3 -5 8 -10 11 -10 2 0 4 5 4 10 0 6 -5 10 -11 10 -5 0
-7 -4 -4 -10z"/>
<path d="M1320 2035 c-1 0 -2 -42 -3 -93 l-2 -92 38 0 c26 0 37 -4 37 -15 0
-11 -11 -15 -37 -15 l-38 0 0 -111 0 -111 28 5 c21 3 27 0 27 -15 0 -14 -6
-19 -22 -18 -35 3 -35 3 -28 -45 4 -25 3 -48 -2 -51 -15 -10 -8 -23 19 -36 15
-7 34 -26 41 -41 12 -26 17 -27 83 -27 l69 0 0 30 c0 20 5 30 15 30 10 0 15
-10 15 -30 l0 -30 65 0 65 0 -6 33 c-18 103 -61 186 -129 245 -39 35 -94 66
-102 58 -3 -2 13 -14 35 -25 46 -23 124 -110 117 -129 -3 -7 0 -10 5 -7 13 8
50 -78 50 -115 0 -25 -4 -29 -32 -32 -27 -2 -36 2 -51 25 -20 32 -44 32 -61 2
-16 -30 -21 -31 -73 -25 -43 4 -48 8 -51 33 -2 16 -14 34 -28 43 -34 23 -33
71 1 84 14 5 25 16 25 25 0 8 -11 22 -25 31 -23 15 -25 22 -25 95 0 80 9 100
36 78 13 -11 15 -10 12 6 -1 10 2 20 9 22 6 2 13 -4 15 -14 2 -10 4 10 5 44 2
54 -1 65 -20 78 -12 8 -29 15 -38 15 -17 0 -28 31 -21 64 3 15 10 17 38 13 19
-3 32 -2 29 3 -3 5 -80 19 -85 15z m68 -121 c21 -15 28 -55 10 -54 -5 0 -21 0
-38 0 -23 0 -30 5 -30 19 0 51 20 62 58 35z m-13 -455 c12 -19 -5 -23 -22 -6
-16 16 -16 17 -1 17 9 0 20 -5 23 -11z"/>
<path d="M717 1954 c-32 -31 -56 -58 -54 -60 2 -2 30 23 62 56 75 76 69 78 -8
4z"/>
<path d="M1144 1946 c11 -9 24 -16 30 -16 12 0 7 5 -24 19 -24 11 -24 11 -6
-3z"/>
<path d="M754 1918 c-142 -153 -195 -270 -228 -505 l-6 -43 34 0 c34 0 35 1
29 35 -3 19 -3 42 1 51 11 29 29 -1 28 -46 l-2 -40 48 0 47 0 2 55 c5 114 71
259 166 362 41 45 41 46 10 28 -18 -10 -30 -22 -28 -25 7 -11 -30 -37 -45 -32
-13 3 -13 2 -1 -6 12 -8 11 -14 -6 -36 -11 -14 -23 -22 -27 -19 -3 3 -6 -1 -6
-10 0 -9 -9 -31 -19 -49 -26 -45 -61 -154 -61 -192 0 -40 -13 -59 -36 -54 -14
2 -19 12 -19 33 0 18 -8 37 -20 47 -19 15 -21 15 -36 0 -10 -10 -14 -28 -12
-44 3 -21 0 -28 -12 -28 -12 0 -14 8 -9 43 10 77 36 178 49 191 7 7 13 19 12
27 -2 27 38 99 52 94 8 -3 11 0 8 9 -3 8 5 26 18 40 13 14 19 26 12 26 -8 0
-8 3 -2 8 13 9 98 112 93 112 -2 0 -18 -15 -34 -32z"/>
<path d="M1520 1885 c0 -2 16 -12 36 -21 20 -9 41 -28 46 -40 6 -13 25 -28 43
-34 82 -27 187 -202 209 -347 5 -35 3 -43 -10 -43 -9 0 -14 7 -12 18 2 9 -7
25 -20 35 -28 23 -52 9 -52 -31 0 -38 -11 -19 -21 35 -21 112 -113 233 -218
287 -53 28 -45 17 18 -25 102 -68 177 -186 188 -296 5 -47 8 -53 29 -53 21 0
24 5 24 35 0 24 5 35 15 35 10 0 15 -11 15 -35 0 -33 2 -35 36 -35 l35 0 -6
48 c-23 170 -101 307 -229 401 -67 50 -126 81 -126 66z"/>
<path d="M635 1872 c3 -3 -3 -15 -13 -26 -65 -73 -125 -224 -146 -364 -11 -82
-13 -87 -37 -87 -21 0 -25 5 -29 49 -3 29 -10 51 -18 52 -7 1 -8 0 -2 -3 5 -2
10 -31 10 -64 l0 -59 39 0 39 0 7 63 c16 147 63 282 134 387 25 37 34 57 25
57 -8 0 -12 -3 -9 -5z"/>
<path d="M738 1820 c12 -5 22 -15 22 -21 0 -7 3 -9 6 -6 10 10 -16 37 -35 36
-11 0 -9 -3 7 -9z"/>
<path d="M939 1789 c-23 -19 -23 -20 -2 -10 12 6 25 16 28 21 10 16 -1 12 -26
-11z"/>
<path d="M770 1770 c0 -5 5 -10 11 -10 5 0 7 5 4 10 -3 6 -8 10 -11 10 -2 0
-4 -4 -4 -10z"/>
<path d="M1070 1760 c13 -11 35 -19 49 -19 l26 2 -27 4 c-14 2 -32 11 -38 19
-7 8 -17 14 -23 14 -5 0 0 -9 13 -20z"/>
<path d="M884 1738 c-12 -13 -13 -18 -4 -13 8 5 0 -5 -18 -23 -52 -49 -102
-171 -116 -284 -6 -48 -6 -48 24 -48 28 0 30 2 30 41 0 52 24 48 28 -4 3 -33
6 -37 32 -37 26 0 29 3 35 53 11 77 41 150 87 210 39 50 40 51 7 20 -68 -64
-106 -145 -108 -230 -1 -22 -30 -34 -32 -13 -1 6 -2 15 -3 21 0 7 -8 17 -18
22 -20 13 -48 -6 -48 -34 0 -11 -4 -19 -9 -19 -23 0 11 131 61 236 30 64 32
66 65 62 18 -2 33 0 33 4 0 4 -7 8 -16 8 -12 0 -15 7 -12 25 6 30 6 30 -18 3z"/>
<path d="M946 1741 c-5 -8 -2 -20 8 -29 17 -17 19 -9 7 22 -6 15 -10 16 -15 7z"/>
<path d="M1030 1693 c0 -13 3 -14 12 -5 9 9 16 8 32 -6 21 -17 21 -17 2 6 -23
26 -46 29 -46 5z"/>
<path d="M2101 1614 c0 -11 3 -14 6 -6 3 7 2 16 -1 19 -3 4 -6 -2 -5 -13z"/>
<path d="M359 1430 c-5 -55 -4 -68 7 -58 3 3 4 30 2 59 l-3 54 -6 -55z"/>
<path d="M1266 1404 c-21 -21 -20 -57 2 -77 37 -33 92 -13 92 33 0 35 -23 60
-55 60 -13 0 -31 -7 -39 -16z m68 -16 c11 -15 12 -26 5 -40 -13 -24 -55 -23
-69 2 -8 15 -8 20 1 20 7 0 9 3 6 7 -9 8 12 33 29 33 7 0 20 -10 28 -22z"/>
<path d="M527 1343 c-8 -7 14 -144 34 -208 89 -296 355 -517 662 -550 l67 -7
0 40 0 40 -45 -6 c-42 -4 -45 -3 -45 18 0 21 3 22 45 18 l45 -6 0 39 c0 37 -1
39 -33 39 -52 0 -146 27 -225 66 -170 83 -312 290 -324 472 -2 23 -6 42 -10
42 -5 0 -26 0 -49 0 l-41 0 3 -41 c2 -27 -1 -43 -11 -49 -8 -6 -10 -10 -4 -10
18 0 34 23 34 52 0 16 7 31 15 34 23 9 45 -15 45 -50 0 -45 52 -187 89 -243
51 -80 160 -184 219 -210 l27 -12 -33 -1 c-20 0 -35 6 -38 15 -5 11 -22 15
-69 15 -49 0 -66 4 -80 20 -10 11 -24 20 -31 20 -7 0 -20 7 -28 16 -9 8 -16
11 -16 4 0 -6 12 -16 27 -23 15 -6 36 -20 45 -29 11 -11 33 -18 55 -18 20 0
65 -10 100 -22 54 -18 66 -26 78 -55 14 -33 20 -36 80 -37 39 -1 45 -33 12
-64 l-25 -23 -79 31 c-135 51 -256 149 -337 270 -54 80 -76 131 -70 162 4 20
3 20 -4 4 -8 -18 -9 -18 -15 -3 -3 9 -4 24 -1 32 7 18 -14 75 -27 75 -5 0 -9
18 -9 41 0 22 4 38 9 35 5 -3 11 10 13 29 2 19 2 35 -2 36 -26 4 -51 5 -53 2z
m40 -45 c-3 -8 -6 -5 -6 6 -1 11 2 17 5 13 3 -3 4 -12 1 -19z m22 -163 c0 -20
0 -20 -9 0 -5 11 -9 27 -9 35 -1 13 0 13 9 0 5 -8 9 -24 9 -35z m480 -345 c8
0 22 -7 30 -15 9 -8 34 -15 56 -16 22 -1 45 -6 50 -9 6 -4 23 -10 38 -14 35
-8 28 -22 -17 -30 -59 -11 -58 -59 0 -73 20 -4 35 -12 34 -18 -1 -11 -69 -9
-114 3 l-29 8 22 21 c16 14 22 30 19 49 -2 24 -8 29 -33 30 -69 3 -73 4 -79
28 -3 13 -9 32 -12 43 -6 15 -4 16 7 6 7 -7 20 -13 28 -13z"/>
<path d="M744 1333 c4 -8 6 -28 6 -44 0 -16 4 -29 8 -29 4 0 6 16 4 35 -3 27
-1 35 11 35 10 0 17 -12 20 -32 3 -30 4 -30 5 7 2 38 0 40 -29 41 -22 1 -29
-2 -25 -13z"/>
<path d="M831 1305 c0 -31 2 -36 9 -20 8 19 9 19 9 -3 1 -13 -11 -35 -25 -49
l-27 -27 -20 25 -20 24 6 -35 c12 -64 77 -180 135 -241 l57 -60 37 15 c48 21
58 20 58 -3 0 -22 -29 -36 -44 -21 -5 5 -17 10 -26 10 -25 -1 28 -40 95 -70
61 -28 145 -50 190 -50 22 0 25 5 25 35 0 33 -2 35 -35 35 -24 0 -35 5 -35 15
0 10 11 15 35 15 31 0 35 3 35 25 0 23 -2 24 -20 15 -11 -6 -20 -16 -20 -22 0
-6 -3 -8 -6 -5 -4 4 -1 13 6 22 10 13 9 15 -8 15 -38 0 -136 43 -189 82 -28
22 -68 63 -88 92 -36 52 -75 157 -75 200 0 19 -5 23 -30 22 -28 -1 -30 -3 -29
-41z m80 -125 c14 -31 41 -72 58 -93 l32 -36 -25 -7 c-15 -3 -42 -3 -61 0 -29
6 -34 4 -29 -9 3 -8 2 -15 -3 -15 -6 0 -18 19 -29 43 -10 23 -22 45 -27 48 -5
3 -14 23 -22 45 -12 36 -12 39 9 53 34 23 46 43 47 80 l1 36 12 -45 c6 -25 23
-70 37 -100z m162 -215 c-3 -10 -10 -12 -21 -6 -9 5 -28 3 -51 -6 -35 -15 -35
-15 -68 21 -18 20 -33 40 -33 45 0 5 21 9 46 9 25 0 48 3 51 6 11 10 82 -54
76 -69z m32 -5 c-3 -5 1 -10 10 -10 8 0 23 -9 32 -19 9 -11 21 -18 25 -14 5 3
2 13 -7 23 -15 16 -14 17 9 13 14 -3 31 -11 37 -19 16 -20 -5 -42 -35 -37 -17
4 -25 0 -29 -16 -6 -26 -48 -29 -72 -5 -16 16 -12 55 6 62 5 2 9 10 9 18 0 8
5 14 11 14 5 0 7 -4 4 -10z m113 -105 l37 -25 -37 0 c-56 0 -70 8 -55 31 15
23 11 24 55 -6z m52 -35 c0 -5 -5 -10 -11 -10 -5 0 -7 5 -4 10 3 6 8 10 11 10
2 0 4 -4 4 -10z"/>
<path d="M935 1342 c-8 -8 25 -114 50 -160 52 -95 158 -171 263 -188 l42 -7 0
67 0 66 -30 0 c-21 0 -30 5 -30 16 0 13 7 15 30 11 l30 -6 0 73 c0 67 -2 74
-24 84 -13 6 -27 19 -30 29 -5 15 -17 18 -86 18 l-80 0 0 -27 c0 -20 -5 -28
-17 -29 -14 0 -15 -2 -3 -6 8 -3 18 -11 22 -17 9 -13 39 3 46 25 3 9 -2 8 -17
-5 -18 -16 -21 -17 -21 -3 0 28 11 46 26 40 8 -3 38 -6 66 -7 29 0 53 -6 55
-13 2 -6 -10 -27 -27 -47 -23 -26 -30 -42 -27 -63 l4 -28 2 29 c1 31 45 86 67
86 15 0 22 -22 23 -71 0 -29 -5 -38 -24 -47 -14 -7 -25 -20 -25 -30 0 -10 -6
-24 -12 -31 -11 -11 -10 -13 2 -9 8 3 25 1 38 -3 18 -7 23 -15 20 -36 -4 -36
-33 -41 -87 -13 -55 28 -55 56 -1 51 11 -1 10 2 -4 13 -17 13 -17 18 -5 32 13
16 12 17 -12 1 -14 -10 -29 -14 -34 -10 -4 5 -5 3 -1 -4 4 -7 4 -24 0 -38 l-7
-27 -46 46 c-47 46 -79 100 -101 169 -14 44 -14 44 23 51 22 4 27 1 27 -15 0
-11 5 -17 10 -14 6 3 10 16 10 28 0 20 -5 22 -51 22 -28 0 -52 -1 -54 -3z"/>
<path d="M1367 1318 c-9 -15 -12 -30 -7 -33 4 -3 10 0 12 7 3 7 32 -39 66
-102 33 -63 65 -121 69 -129 7 -12 18 -6 53 25 65 59 102 127 124 229 l6 30
-65 0 c-64 0 -65 0 -65 -27 0 -18 -5 -28 -15 -28 -10 0 -15 10 -15 28 l0 27
-74 0 c-70 0 -74 -1 -89 -27z m297 -7 c11 -18 -53 -146 -94 -187 -24 -24 -46
-44 -49 -44 -8 0 -121 215 -121 229 0 6 20 11 47 11 39 0 51 -5 68 -26 25 -31
60 -27 69 9 5 20 11 22 41 19 19 -2 37 -7 39 -11z"/>
<path d="M1726 1297 c-10 -92 -83 -215 -158 -268 -28 -21 -32 -21 -43 -6 -7 9
-15 14 -18 10 -12 -11 -7 -21 12 -26 27 -7 84 -120 68 -136 -8 -8 -8 -11 0
-11 7 0 14 -8 16 -17 2 -10 3 -6 2 10 -1 21 6 32 29 47 115 71 217 241 240
401 l7 45 -36 0 c-34 0 -35 -1 -35 -38 0 -27 -4 -38 -15 -38 -11 0 -15 11 -15
39 0 35 -3 39 -24 37 -21 -1 -25 -7 -30 -49z m134 15 c0 -4 -7 -35 -15 -67
-32 -128 -97 -234 -183 -301 -50 -38 -76 -36 -68 5 3 14 3 20 0 13 -5 -10 -9
-9 -20 5 -13 17 -20 53 -8 41 3 -4 30 20 60 53 59 64 113 164 117 216 2 37 14
44 19 12 5 -34 31 -45 56 -24 11 10 19 22 16 27 -3 4 -2 13 1 18 7 12 25 13
25 2z"/>
<path d="M1317 1218 c2 -72 2 -73 27 -70 18 2 26 -1 26 -12 0 -11 -9 -16 -27
-16 -28 0 -28 -1 -28 -65 0 -74 3 -76 92 -54 37 10 47 9 54 -2 5 -8 9 -17 9
-21 0 -11 -83 -31 -152 -37 -5 -1 -8 -10 -8 -21 0 -17 7 -20 40 -20 29 0 40
-4 40 -15 0 -11 -11 -15 -40 -15 -40 0 -40 0 -37 -35 2 -33 4 -35 38 -35 19 0
70 9 113 20 42 11 81 18 86 15 30 -18 -24 104 -69 156 -8 11 -16 25 -16 33 0
21 -129 266 -140 266 -6 0 -9 -30 -8 -72z m42 -35 c10 -19 9 -22 -4 -17 -8 4
-15 15 -15 27 0 23 2 22 19 -10z m58 -121 c7 -29 -3 -39 -42 -44 -28 -3 -30
-1 -33 35 -2 28 0 37 13 37 8 0 18 7 22 16 6 15 8 15 20 -2 8 -10 16 -29 20
-42z m83 -153 c12 -23 19 -44 15 -47 -22 -22 -105 -4 -105 23 0 7 -7 19 -16
26 -14 11 -11 14 23 25 58 18 61 17 83 -27z m-62 -68 c15 -9 -29 -21 -79 -21
-40 0 -37 18 4 23 57 7 62 7 75 -2z"/>
<path d="M1084 1185 c4 -16 12 -34 17 -40 5 -5 4 6 -2 25 -15 45 -24 54 -15
15z"/>
<path d="M654 1056 c10 -33 11 -48 2 -57 -9 -11 -8 -11 5 -1 14 11 20 8 37
-20 11 -18 22 -40 26 -48 3 -8 3 -2 0 15 -3 16 -10 35 -16 42 -16 19 -48 86
-48 100 0 7 -4 13 -10 13 -5 0 -3 -19 4 -44z"/>
<path d="M1539 804 c-38 -20 -138 -44 -185 -44 l-41 0 2 -37 c3 -37 3 -37 44
-34 36 2 41 0 41 -19 0 -19 -5 -21 -41 -19 l-42 3 -1 -37 c-1 -35 1 -37 29
-37 80 0 280 51 307 78 12 12 -22 83 -35 75 -6 -3 -7 -1 -3 5 7 12 -24 74 -39
78 -6 1 -22 -4 -36 -12z m42 -46 c7 -18 15 -35 19 -38 12 -11 29 -60 21 -60
-5 0 -12 6 -14 13 -4 8 -6 6 -6 -4 -1 -18 -67 -41 -165 -59 -84 -14 -98 -13
-94 8 2 11 13 17 31 17 15 1 34 8 42 16 13 13 13 18 1 34 -8 11 -26 19 -42 20
-19 0 -30 6 -32 18 -3 13 4 17 30 18 52 1 86 8 136 29 61 25 58 25 73 -12z"/>
<path d="M1580 545 c-11 -13 -10 -14 4 -9 9 3 16 10 16 15 0 13 -6 11 -20 -6z"/>
<path d="M810 2326 c-166 -82 -305 -190 -391 -304 -99 -130 -175 -313 -203
-491 -16 -94 -14 -293 2 -314 5 -6 15 -37 22 -67 20 -89 108 -300 125 -300 2
0 -12 34 -32 76 -19 42 -46 120 -61 173 -22 85 -25 115 -25 266 0 141 3 183
20 245 55 200 135 347 260 480 89 95 157 149 268 213 84 49 92 62 15 23z"/>
<path d="M1833 2300 c257 -150 441 -389 514 -668 19 -75 26 -129 29 -237 5
-165 -16 -286 -71 -425 -19 -46 -33 -86 -31 -87 8 -9 78 164 96 237 11 47 28
109 37 139 27 93 6 304 -48 463 -30 90 -112 243 -169 314 -57 72 -225 206
-331 263 -96 52 -115 53 -26 1z"/>
<path d="M442 721 c40 -68 162 -192 248 -253 319 -226 730 -260 1084 -90 163
79 332 221 400 335 l18 32 -27 -30 c-188 -211 -344 -317 -560 -380 -322 -93
-679 -25 -944 179 -57 44 -173 161 -224 226 -25 32 -24 30 5 -19z"/>
<path d="M810 366 c0 -2 7 -7 16 -10 8 -3 12 -2 9 4 -6 10 -25 14 -25 6z"/>
</g>
</svg>
