<?xml version="1.0" standalone="no"?>
<!DOCTYPE svg PUBLIC "-//W3C//DTD SVG 20010904//EN"
 "http://www.w3.org/TR/2001/REC-SVG-20010904/DTD/svg10.dtd">
<svg version="1.0" xmlns="http://www.w3.org/2000/svg"
 width="300.000000pt" height="300.000000pt" viewBox="0 0 300.000000 300.000000"
 preserveAspectRatio="xMidYMid meet">
<metadata>
Created by potrace 1.10, written by Peter Selinger 2001-2011
</metadata>
<g transform="translate(0.000000,300.000000) scale(0.100000,-0.100000)"
fill="#000000" stroke="none">
<path d="M932 2834 c-50 -26 -82 -79 -82 -136 l0 -47 -252 -3 c-243 -3 -254
-4 -284 -25 -68 -49 -64 30 -64 -1225 l0 -1133 23 -39 c12 -21 38 -47 57 -57
33 -18 84 -19 1168 -19 1255 0 1176 -4 1225 64 l22 31 3 1135 c2 791 0 1146
-8 1172 -7 23 -24 48 -47 65 l-36 28 -254 3 -253 3 0 47 c0 92 -76 160 -168
149 -79 -9 -132 -70 -132 -154 l0 -43 -350 0 -350 0 0 43 c0 50 -25 103 -62
130 -36 27 -114 32 -156 11z m173 -69 c14 -24 25 -57 25 -73 0 -66 -23 -62
364 -62 260 0 355 3 364 12 7 7 12 26 12 44 0 40 27 107 40 99 6 -3 10 0 10 8
0 14 68 38 93 32 74 -16 104 -49 114 -122 3 -27 10 -54 16 -60 7 -10 70 -13
253 -13 134 0 244 -4 244 -9 0 -5 13 -14 28 -20 64 -27 61 35 62 -1206 l0
-1125 -26 -39 c-14 -22 -39 -44 -56 -50 -46 -16 -2259 -15 -2295 2 -36 15 -47
26 -66 64 -14 27 -16 149 -16 1153 0 1009 1 1127 16 1157 8 19 18 31 21 29 2
-3 13 5 22 17 18 21 24 22 266 25 157 2 253 7 261 14 7 6 13 25 13 43 0 78 40
125 115 135 60 8 91 -6 120 -55z"/>
<path d="M953 2748 c-23 -25 -26 -47 -24 -186 1 -74 4 -86 26 -107 13 -14 34
-25 45 -25 12 0 32 11 45 25 24 23 25 30 25 147 0 68 -4 128 -8 134 -10 16
-48 34 -70 34 -10 0 -28 -10 -39 -22z m81 -14 c13 -12 16 -40 16 -134 0 -125
-8 -150 -50 -150 -42 0 -50 25 -50 150 0 125 8 150 50 150 10 0 26 -7 34 -16z"/>
<path d="M988 2643 c6 -2 18 -2 25 0 6 3 1 5 -13 5 -14 0 -19 -2 -12 -5z"/>
<path d="M993 2543 c9 -2 23 -2 30 0 6 3 -1 5 -18 5 -16 0 -22 -2 -12 -5z"/>
<path d="M1955 2745 c-24 -23 -25 -30 -25 -143 0 -132 9 -155 62 -168 21 -4
33 0 52 20 25 24 26 30 26 144 0 106 -2 122 -21 146 -26 33 -62 34 -94 1z m79
-11 c13 -12 16 -40 16 -134 0 -125 -8 -150 -50 -150 -42 0 -50 25 -50 150 0
125 8 150 50 150 10 0 26 -7 34 -16z"/>
<path d="M1976 2641 c-3 -4 6 -6 19 -3 14 2 25 6 25 8 0 8 -39 4 -44 -5z"/>
<path d="M1979 2541 c12 -8 51 -4 51 5 0 2 -15 4 -32 4 -23 0 -29 -3 -19 -9z"/>
<path d="M351 2544 c-23 -29 -21 81 -22 -1493 0 -737 1 -766 19 -790 l19 -26
1130 -3 1129 -2 23 24 22 24 0 1118 c0 1081 -1 1119 -19 1144 l-19 25 -238 3
c-154 1 -242 -1 -250 -8 -7 -6 -15 -35 -17 -66 -4 -42 -11 -61 -30 -80 -27
-28 -97 -56 -113 -46 -5 4 -19 8 -29 9 -45 7 -86 70 -86 131 0 21 -5 43 -12
50 -17 17 -699 17 -716 0 -7 -7 -12 -27 -12 -45 0 -104 -91 -172 -179 -133
-50 23 -81 71 -81 125 0 23 -5 46 -12 53 -9 9 -78 12 -249 12 l-238 0 -20 -26z
m499 -31 c0 -84 72 -163 150 -163 79 0 150 76 150 160 l0 40 350 0 350 0 0
-40 c0 -84 71 -160 150 -160 79 0 150 76 150 160 l0 40 234 0 c200 0 237 -2
250 -16 14 -14 16 -130 16 -1134 0 -1004 -2 -1120 -16 -1134 -14 -14 -130 -16
-1134 -16 -1004 0 -1120 2 -1134 16 -14 14 -16 130 -16 1134 0 1004 2 1120 16
1134 13 14 50 16 250 16 l234 0 0 -37z"/>
<path d="M370 2443 c0 -10 458 -9 467 1 3 3 -100 6 -230 6 -130 0 -237 -3
-237 -7z"/>
<path d="M1167 2442 c14 -9 661 -8 670 1 3 4 -149 7 -338 7 -189 0 -339 -4
-332 -8z"/>
<path d="M2163 2444 c4 -4 107 -7 229 -7 148 0 226 -4 231 -11 6 -7 7 -6 4 4
-3 13 -40 15 -237 18 -129 1 -231 -1 -227 -4z"/>
<path d="M370 2113 c0 -17 2255 -19 2265 -3 4 6 -6 10 -22 10 -15 1 -526 2
-1136 3 -880 2 -1107 -1 -1107 -10z"/>
<path d="M1266 1634 c-9 -8 -16 -20 -16 -26 0 -6 -11 -106 -25 -221 -14 -115
-23 -218 -20 -228 10 -32 51 -34 93 -7 58 39 108 51 179 45 128 -10 218 -102
218 -221 -1 -68 -17 -107 -66 -155 -44 -45 -83 -62 -150 -68 -77 -7 -134 10
-199 59 -59 44 -95 46 -106 4 -8 -35 8 -58 68 -99 187 -127 435 -65 526 132
73 154 -3 344 -166 419 -71 32 -176 40 -246 18 l-48 -15 5 27 c3 15 11 78 18
140 l12 112 188 0 c199 0 219 5 219 50 0 46 -18 50 -250 50 -185 0 -221 -2
-234 -16z m453 -18 c6 -7 6 -17 1 -26 -8 -12 -41 -15 -172 -16 -215 -2 -206
-1 -218 -24 -17 -31 -43 -271 -31 -283 6 -6 28 -6 61 0 95 19 171 11 242 -26
76 -40 113 -78 146 -151 87 -189 -54 -405 -273 -416 -75 -4 -163 15 -189 41
-8 8 -20 15 -26 15 -13 0 -70 57 -70 70 0 32 53 22 95 -17 38 -36 94 -53 175
-53 101 0 173 43 230 135 20 33 25 53 25 111 0 61 -4 76 -29 115 -62 94 -119
124 -236 124 -77 0 -91 -3 -145 -32 -67 -37 -80 -33 -77 25 4 92 41 370 53
394 l12 27 208 0 c150 0 211 -4 218 -13z"/>
<path d="M390 341 c32 -9 2227 -7 2237 2 3 4 -504 7 -1128 6 -624 0 -1123 -4
-1109 -8z"/>
</g>
</svg>
