<?xml version="1.0" standalone="no"?>
<!DOCTYPE svg PUBLIC "-//W3C//DTD SVG 20010904//EN"
 "http://www.w3.org/TR/2001/REC-SVG-20010904/DTD/svg10.dtd">
<svg version="1.0" xmlns="http://www.w3.org/2000/svg"
 width="256.000000pt" height="256.000000pt" viewBox="0 0 256.000000 256.000000"
 preserveAspectRatio="xMidYMid meet">
<metadata>
Created by potrace 1.10, written by Peter Selinger 2001-2011
</metadata>
<g transform="translate(0.000000,256.000000) scale(0.100000,-0.100000)"
fill="#000000" stroke="none">
<path d="M581 2419 c-220 -33 -371 -164 -429 -372 -15 -56 -17 -130 -17 -757
0 -758 0 -758 58 -880 37 -79 130 -176 205 -214 122 -62 109 -61 882 -61 774
0 760 -1 884 62 65 33 166 134 200 201 62 122 61 109 61 882 0 652 -1 710 -18
769 -52 181 -174 305 -353 358 -53 15 -126 17 -734 19 -380 1 -703 -2 -739 -7z
m1473 -42 c182 -54 298 -184 331 -374 21 -117 21 -1333 0 -1451 -19 -107 -61
-187 -137 -258 -147 -135 -205 -142 -1098 -133 -549 5 -589 7 -652 26 -174 52
-288 183 -324 370 -22 121 -16 1422 8 1499 50 165 179 285 346 324 94 22 235
25 857 20 539 -5 617 -8 669 -23z"/>
<path d="M1195 2304 c-228 -23 -449 -121 -604 -268 -172 -163 -272 -342 -317
-565 -23 -117 -15 -355 15 -461 135 -467 590 -790 1064 -754 243 18 490 135
660 313 133 140 213 285 264 480 22 88 24 110 20 261 -4 154 -6 172 -37 265
-42 129 -84 212 -157 310 -58 78 -192 212 -238 237 -12 7 -47 28 -76 45 -99
60 -243 112 -349 127 -61 8 -204 14 -245 10z m235 -39 c213 -32 401 -127 554
-281 391 -391 391 -1017 0 -1408 -391 -391 -1017 -391 -1408 0 -391 391 -391
1017 0 1408 228 228 537 330 854 281z"/>
<path d="M1210 2125 c0 -8 -9 -15 -20 -15 -11 0 -20 -7 -20 -15 0 -8 9 -15 20
-15 16 0 19 -8 22 -55 5 -86 23 -65 26 30 2 71 0 85 -13 85 -8 0 -15 -7 -15
-15z"/>
<path d="M1303 2114 c-17 -18 -22 -29 -15 -36 13 -13 32 -2 32 18 0 8 10 14
25 14 39 0 32 -37 -15 -77 -22 -19 -40 -43 -40 -54 0 -18 6 -20 55 -17 67 4
77 21 16 28 l-43 5 41 33 c45 36 53 68 23 95 -26 24 -49 21 -79 -9z"/>
<path d="M825 2010 c-10 -11 -24 -20 -32 -20 -7 0 -13 -4 -13 -10 0 -5 11 -10
25 -10 24 0 25 -3 25 -61 0 -39 4 -59 11 -57 10 3 16 164 7 174 -3 2 -13 -5
-23 -16z"/>
<path d="M955 2010 c-10 -11 -24 -20 -32 -20 -7 0 -13 -4 -13 -10 0 -5 12 -10
26 -10 25 0 25 -2 23 -57 -2 -37 1 -58 9 -61 9 -3 12 21 12 87 0 50 -2 91 -3
91 -2 0 -12 -9 -22 -20z"/>
<path d="M1657 2009 c-9 -10 -24 -19 -32 -19 -9 0 -13 -4 -10 -10 3 -5 15 -10
26 -10 17 0 19 -7 19 -60 0 -47 3 -60 15 -60 12 0 15 16 15 84 0 47 -4 87 -8
90 -5 3 -16 -4 -25 -15z"/>
<path d="M1106 1842 c-2 -4 31 -122 74 -262 69 -224 77 -257 64 -271 -18 -20
-18 -43 1 -59 8 -7 13 -16 10 -20 -11 -18 -265 -765 -265 -779 0 -41 29 33
141 359 67 195 126 370 132 388 6 17 15 32 21 32 6 0 93 -164 194 -365 160
-320 202 -395 202 -355 0 6 6 10 14 10 24 0 54 46 49 74 -7 34 -28 49 -58 43
-20 -3 -25 -1 -23 12 2 10 15 17 36 19 20 2 32 9 32 18 0 12 -10 14 -42 12
-37 -3 -43 -6 -46 -28 -2 -14 -5 -31 -7 -38 -3 -7 -75 126 -160 297 -124 249
-153 316 -149 339 4 19 1 32 -9 41 -14 11 -14 16 -1 46 17 40 18 55 4 55 -5 0
-13 -18 -16 -40 -4 -22 -9 -40 -13 -40 -3 0 -32 87 -64 193 -93 311 -99 327
-107 327 -5 0 -11 -4 -14 -8z m198 -538 c9 -8 16 -19 16 -24 0 -5 -7 -16 -16
-24 -8 -9 -19 -16 -24 -16 -5 0 -16 7 -24 16 -9 8 -16 19 -16 24 0 5 7 16 16
24 8 9 19 16 24 16 5 0 16 -7 24 -16z m406 -699 c16 -19 3 -55 -20 -55 -10 0
-25 11 -34 25 -15 22 -15 25 2 34 24 14 38 13 52 -4z"/>
<path d="M517 1719 c-9 -10 -24 -19 -32 -19 -9 0 -13 -4 -10 -10 3 -5 15 -10
26 -10 17 0 19 -7 19 -60 0 -47 3 -60 15 -60 12 0 15 16 15 84 0 47 -4 87 -8
90 -5 3 -16 -4 -25 -15z"/>
<path d="M1915 1715 c-28 -27 -32 -45 -11 -45 8 0 18 9 21 21 5 14 14 19 28
17 30 -4 33 -33 6 -55 -41 -34 -59 -57 -59 -75 0 -15 9 -18 55 -18 42 0 55 3
55 15 0 11 -11 15 -42 15 l-43 0 43 36 c46 39 52 64 22 94 -26 26 -46 25 -75
-5z"/>
<path d="M609 1714 c-20 -25 -17 -108 5 -133 44 -49 101 -10 101 69 0 26 -6
54 -14 63 -17 21 -74 22 -92 1z m65 -20 c9 -23 7 -77 -3 -92 -5 -8 -17 -12
-27 -10 -21 3 -30 51 -20 94 7 27 41 33 50 8z"/>
<path d="M470 1350 c-41 -41 -9 -109 45 -96 29 7 32 -5 8 -29 -16 -16 -18 -16
-35 5 -13 16 -22 20 -29 13 -16 -16 17 -43 51 -43 56 0 79 102 34 151 -22 25
-49 24 -74 -1z m70 -34 c0 -20 -27 -39 -45 -32 -18 6 -20 37 -3 54 14 14 48
-2 48 -22z"/>
<path d="M2030 1350 c-11 -11 -20 -24 -20 -30 0 -16 27 -12 34 5 8 23 46 19
46 -5 0 -13 -7 -20 -20 -20 -28 0 -25 -15 6 -29 28 -12 28 -29 0 -45 -14 -9
-21 -7 -33 12 -19 27 -33 29 -33 4 0 -47 78 -60 106 -17 14 22 15 27 2 48 -11
16 -12 26 -5 39 9 13 7 22 -7 37 -24 26 -50 27 -76 1z"/>
<path d="M1950 917 c-51 -68 -52 -84 -5 -79 30 4 35 1 35 -17 0 -12 6 -21 15
-21 8 0 15 9 15 19 0 11 6 22 13 25 10 5 10 7 0 12 -8 3 -13 26 -13 60 0 30
-4 54 -10 54 -5 0 -27 -24 -50 -53z m30 -27 c0 -24 -4 -30 -21 -30 -20 0 -20
1 -2 30 9 17 19 30 20 30 2 0 3 -13 3 -30z"/>
<path d="M551 951 c-9 -6 -12 -19 -8 -40 4 -16 2 -33 -3 -36 -19 -12 -10 -54
15 -71 30 -20 70 -12 85 16 12 22 5 60 -11 60 -5 0 -4 9 3 20 10 15 10 25 2
38 -12 19 -61 27 -83 13z m59 -31 c0 -21 -33 -29 -45 -10 -9 15 4 30 26 30 12
0 19 -7 19 -20z m7 -66 c8 -21 -19 -46 -40 -38 -17 6 -23 35 -10 47 12 13 44
7 50 -9z"/>
<path d="M820 685 c0 -11 11 -15 42 -15 39 0 40 -1 25 -18 -15 -17 -47 -93
-47 -113 0 -5 7 -9 15 -9 8 0 19 16 24 38 6 20 20 52 31 70 33 53 28 62 -35
62 -42 0 -55 -3 -55 -15z"/>
<path d="M1246 561 c-44 -49 -22 -151 33 -151 34 0 61 27 61 62 0 33 -23 51
-58 46 -24 -3 -28 -1 -25 13 7 26 35 33 50 13 9 -13 16 -15 24 -7 7 7 5 15 -6
27 -22 21 -58 20 -79 -3z m59 -96 c0 -23 -5 -30 -19 -30 -24 0 -41 27 -33 49
4 11 15 16 29 14 18 -2 23 -9 23 -33z"/>
</g>
</svg>
